<svg width="1200" height="630" viewBox="0 0 1200 630" xmlns="http://www.w3.org/2000/svg">
  <rect width="1200" height="630" fill="#09090B"/>
  <circle cx="1050" cy="120" r="300" fill="#10B981" opacity="0.07"/>
  <circle cx="150" cy="520" r="220" fill="#3B82F6" opacity="0.05"/>
  <defs><pattern id="grid" width="40" height="40" patternUnits="userSpaceOnUse"><path d="M 40 0 L 0 0 0 40" fill="none" stroke="#ffffff" stroke-width="0.3" opacity="0.08"/></pattern></defs>
  <rect width="1200" height="630" fill="url(#grid)"/>
  <g transform="translate(750, 200)">
    <rect x="0" y="0" width="340" height="210" rx="18" fill="#18181B" stroke="#10B981" stroke-width="1.5"/>
    <rect x="28" y="35" width="52" height="40" rx="6" fill="#10B981" opacity="0.15"/>
    <rect x="28" y="35" width="52" height="40" rx="6" fill="none" stroke="#10B981" stroke-width="1" opacity="0.5"/>
    <line x1="54" y1="35" x2="54" y2="75" stroke="#10B981" stroke-width="0.8" opacity="0.4"/>
    <line x1="28" y1="55" x2="80" y2="55" stroke="#10B981" stroke-width="0.8" opacity="0.4"/>
    <text x="28" y="135" font-family="system-ui,sans-serif" font-size="22" font-weight="700" fill="#ffffff">Carlos Alvarez</text>
    <text x="28" y="158" font-family="system-ui,sans-serif" font-size="14" fill="#10B981">CEO · NexCard</text>
    <rect x="28" y="178" width="284" height="1" fill="#ffffff" opacity="0.1"/>
    <text x="28" y="196" font-family="system-ui,sans-serif" font-size="11" fill="#71717A">nexcard-mvp.vercel.app/carlos-alvarez</text>
  </g>
  <rect x="80" y="80" width="220" height="32" rx="16" fill="#10B981" opacity="0.15"/>
  <circle cx="100" cy="96" r="5" fill="#10B981"/>
  <text x="114" y="101" font-family="system-ui,sans-serif" font-size="13" fill="#10B981" font-weight="600">Tarjeta NFC · Chile</text>
  <text x="80" y="185" font-family="system-ui,sans-serif" font-size="72" font-weight="800" fill="#ffffff">Nex</text>
  <text x="218" y="185" font-family="system-ui,sans-serif" font-size="72" font-weight="800" fill="#10B981">Card</text>
  <text x="80" y="240" font-family="system-ui,sans-serif" font-size="28" fill="#A1A1AA">Tu tarjeta de visita</text>
  <text x="80" y="278" font-family="system-ui,sans-serif" font-size="28" fill="#A1A1AA">del siglo XXI</text>
  <circle cx="90" cy="340" r="10" fill="#10B981" opacity="0.2"/>
  <circle cx="90" cy="340" r="4" fill="#10B981"/>
  <text x="108" y="345" font-family="system-ui,sans-serif" font-size="16" fill="#D4D4D8">Un toque · Contacto completo</text>
  <circle cx="90" cy="378" r="10" fill="#10B981" opacity="0.2"/>
  <circle cx="90" cy="378" r="4" fill="#10B981"/>
  <text x="108" y="383" font-family="system-ui,sans-serif" font-size="16" fill="#D4D4D8">Sin apps · Sin papel</text>
  <circle cx="90" cy="416" r="10" fill="#10B981" opacity="0.2"/>
  <circle cx="90" cy="416" r="4" fill="#10B981"/>
  <text x="108" y="421" font-family="system-ui,sans-serif" font-size="16" fill="#D4D4D8">iPhone y Android · Siempre actualizado</text>
  <rect x="80" y="490" width="200" height="36" rx="8" fill="#10B981" opacity="0.1"/>
  <text x="100" y="513" font-family="system-ui,sans-serif" font-size="15" fill="#10B981" font-weight="600">Desde $79.990 CLP</text>
  <line x1="80" y1="540" x2="680" y2="540" stroke="#27272A" stroke-width="1"/>
  <text x="80" y="570" font-family="system-ui,sans-serif" font-size="18" fill="#52525B">nexcard-mvp.vercel.app</text>
</svg>
